<svg width="0" height="0" class="hidden"><symbol id="facebook" xml:space="preserve" xmlns="http://www.w3.org/2000/svg" xmlns:xlink="http://www.w3.org/1999/xlink" viewBox="0 0 512 512"><path d="M304 383c0 40.2-.1 80.3.1 120.5 0 4.4-1.2 5.6-5.6 5.5-34.2-.2-68.3-.2-102.5 0-4.7 0-6.2-1.1-6.2-6 .2-79.7.1-159.3.1-239 0-8 .9-7-7.3-7.1-14.5 0-29-.1-43.5.1-3.5 0-4.5-1.1-4.5-4.6.1-25.3.1-50.7 0-76 0-3.5 1-4.6 4.5-4.5 15.2.2 30.3-.1 45.5.2 4.1.1 5.4-1 5.4-5.3-.2-21.3 0-42.7-.1-64-.1-17.7 2.6-34.8 11.5-50.4 9.6-17 24-28.7 41.8-36.3 15-6.4 30.8-9.4 47-10.3 32.1-1.8 64.3-.3 96.4-.9 3.6-.1 4.5 1.2 4.5 4.6-.1 26.3-.1 52.7 0 79 0 4-1.5 4.6-5 4.6-18.5-.1-37-.1-55.5-.1-15.4 0-26.5 11.1-26.5 26.3 0 15.7.2 31.3-.1 47-.1 4.5 1.4 5.6 5.7 5.6 25.3-.2 50.7 0 76-.2 4.2 0 5.6 1.2 5.1 5.4-1.5 12.9-2.8 25.8-4.2 38.7-1.3 12.4-3.5 24.7-5.5 37-.6 3.5-1.7 4.3-4.9 4.3-21.7-.1-43.3-.1-65 0-8.5 0-7.3-1.1-7.3 7.5.1 39.4.1 78.9.1 118.4z"/></symbol><symbol id="youtube" xml:space="preserve" xmlns="http://www.w3.org/2000/svg" xmlns:xlink="http://www.w3.org/1999/xlink" viewBox="0 0 512 512"><path d="M260.4 449c-57.1-1.8-111.4-3.2-165.7-5.3-11.7-.5-23.6-2.3-35-5-21.4-5-36.2-17.9-43.8-39-6.1-17-8.3-34.5-9.9-52.3-3.5-41.8-3.5-83.6-1.8-125.4 1-23.6 1.6-47.4 7.9-70.3 3.8-13.7 8.4-27.1 19.5-37 11.7-10.5 25.4-16.8 41-17.5 42.8-2.1 85.5-4.7 128.3-5.1 57.6-.6 115.3.2 172.9 1.3 24.9.5 50 1.8 74.7 5 22.6 3 39.5 15.6 48.5 37.6 6.9 16.9 9.5 34.6 11 52.6 3.9 45.1 4 90.2 1.8 135.3-1.1 22.9-2.2 45.9-8.7 68.2-7.4 25.6-23.1 42.5-49.3 48.3-10.2 2.2-20.8 3-31.2 3.4-54.4 1.9-108.7 3.6-160.2 5.2zm-55.3-113.7c45.6-23.6 90.7-47 136.7-70.9-45.9-24-91-47.5-136.7-71.4v142.3z"/></symbol><symbol id="pinterest" xml:space="preserve" xmlns="http://www.w3.org/2000/svg" xmlns:xlink="http://www.w3.org/1999/xlink" viewBox="0 0 512 512"><path d="M236.3 335.8c-1.9 7.7-3.6 14.5-5.3 21.3-1.9 7.8-3.7 15.6-5.5 23.4-2.2 9.5-3.9 19.1-6.7 28.3-4 13.1-8 26.2-13.4 38.7-5 11.5-11.6 22.4-17.9 33.3-5.2 8.9-11.1 17.5-16.9 26.1-.9 1.3-3.4 2.6-4.5 2.2-1.4-.5-3-2.7-3.2-4.3-3.8-30.3-5.8-60.8-1.8-91.2 1.6-12.3 4.9-24.3 7.4-36.5 1.6-8 3.2-16.1 4.9-24.2 2.1-9.9 4.3-19.9 6.5-29.8 3.2-14.6 6.5-29.1 9.8-43.7 2.7-11.7 5.3-23.5 8.2-35.2 1.4-5.6-1.5-10.2-2.8-15.2-4.3-17.2-7-34.3-3.8-52.2 2.3-12.9 5.7-25.2 13-36.1 9.5-14.2 22.3-23.5 40.4-22.5 15.5.9 26.3 11 30.3 25.3 4.5 15.8 2.5 31.6-1.6 47.2-4.4 17-9.1 33.8-13.4 50.8-2.7 10.6-6.6 21.2-7.2 32-.9 16.1 5.4 30.2 19.5 39.3 11.2 7.2 23.1 8.6 36.3 5.4 17.5-4.3 29.6-15.2 39.8-29 12.1-16.3 18.9-34.8 24.2-54.3 6.5-24.2 9-48.6 8.5-73.5-.4-23-6.5-44.3-19.5-63.3-9.8-14.2-22.7-24.8-38.7-31.8-10.2-4.5-20.3-8.4-31.5-8.9-12.1-.5-24.3-2.6-36.2-1.4-35.9 3.9-65.6 19.7-88 48.5-8.9 11.5-16 24-20.7 37.5-7.2 20.8-10.4 42.4-8.3 64.5 1.5 15.5 6 30.4 16.2 42.4 7 8.2 5.7 16.2 3.3 25-1.3 4.6-2.5 9.2-3.5 13.9-1.7 8.4-6.4 12.7-16.1 8-19.4-9.4-31.7-24.9-40.3-44.1-12-26.9-14.1-55.3-11.3-83.9 3.3-32.4 15.8-61.7 35-88 13.9-19 31.2-34.4 51.4-46.5 15.8-9.5 32.6-16.2 50.4-20.8 23.1-6 46.5-7.8 70-5.9 17.6 1.4 34.6 5.6 51.1 12.4 28.5 11.8 51.8 29.9 70 54.6 10.8 14.7 19.1 30.8 24.5 48.4 3.2 10.4 5.9 20.8 6.2 31.7.4 12.3 1.8 24.6 1.1 36.7-.7 12.9-3.3 25.8-5.3 38.6-3.3 21.2-10.4 41.2-19.9 60.3-8.2 16.4-18.5 31.3-31.8 44.2-13.4 13-28.8 22.7-46.4 29.1-16.7 6.1-33.8 8.3-51.2 6.2-20.7-2.6-38.2-11.9-51.3-28.7-.9-1-2.3-2.4-4-4.3z"/></symbol><symbol id="instagram" xml:space="preserve" xmlns="http://www.w3.org/2000/svg" xmlns:xlink="http://www.w3.org/1999/xlink" viewBox="0 0 512 512"><path d="M505 257c0 34.8-.7 69.7.2 104.5 1.5 61.6-37.2 109.2-86.5 130.4-19.8 8.5-40.6 13-62.1 13-67.3.1-134.7 1-202-.3-50.7-1-92.4-22.2-122.3-64-15.7-22-23.2-47-23.2-74.1v-215c0-58.5 28.5-99.4 79.1-126C110.2 14 134.1 9.1 159 9c65.3 0 130.7-.4 196 .2 50.7.4 93 19.8 124.2 60.6 17.4 22.8 25.8 49 25.8 77.8V257zm-459 0v110c0 16.4 3.8 31.8 12.3 45.7 22.3 36.5 56 54.3 97.8 55 67.1 1 134.3.4 201.5.2 16.5 0 32.5-3.4 47.4-10.5 40.6-19.4 63.3-50.3 63.1-96.7-.4-71-.1-142-.1-213 0-20.1-5.7-38.5-17.6-54.7-23-31.1-54.8-46.4-92.8-46.8-67-.8-134-.3-201-.2-14.3 0-28.1 2.9-41.5 7.9-36.8 13.7-71 48.4-69.4 99.5 1.2 34.6.3 69.1.3 103.6z"/><path d="M257.6 363c-64.5 0-116.5-51.4-116.6-115.4-.1-63 52.3-114.6 116.4-114.6 64.3-.1 116.5 51.4 116.6 114.9 0 63.4-52.1 115-116.4 115.1zm0-37c43.9 0 79.5-35.1 79.4-78.3-.1-42.8-35.7-77.8-79.4-77.8-43.9 0-79.7 34.9-79.7 78 .1 43.2 35.8 78.2 79.7 78.1zM387.5 98c13.5 0 24.5 11.5 24.5 25.6-.1 14.1-11.2 25.5-24.7 25.4-13.3-.1-24.2-11.5-24.2-25.3C363 109.6 374 98 387.5 98z"/></symbol><symbol xmlns="http://www.w3.org/2000/svg" viewBox="0 0 40 40" id="reviews-slider-prev-btn"><circle cx="20" cy="20" r="19.5" transform="rotate(90 20 20)"/><path d="M15.283 19.646l7.071 7.072m-.072-13.364l-7.071 7.071"/></symbol><symbol xmlns="http://www.w3.org/2000/svg" viewBox="0 0 40 40" id="reviews-slider-next-btn"><circle cx="20" cy="20" r="19.5" transform="rotate(-90 20 20)"/><path d="M24.718 20.354l-7.072-7.071m.072 13.363l7.071-7.071"/></symbol></svg>